<svg width="1024" height="1024" viewBox="0 0 1024 1024" fill="none" xmlns="http://www.w3.org/2000/svg">
  <defs>
    <linearGradient id="icon-bg" x1="118" y1="64" x2="906" y2="956" gradientUnits="userSpaceOnUse">
      <stop stop-color="#071A3A"/>
      <stop offset="0.56" stop-color="#030C20"/>
      <stop offset="1" stop-color="#020817"/>
    </linearGradient>
    <radialGradient id="icon-glow" cx="0" cy="0" r="1" gradientTransform="translate(512 463) rotate(90) scale(448)" gradientUnits="userSpaceOnUse">
      <stop stop-color="#174DA8" stop-opacity="0.38"/>
      <stop offset="1" stop-color="#071326" stop-opacity="0"/>
    </radialGradient>
    <linearGradient id="mark-top" x1="17" y1="16" x2="76" y2="35" gradientUnits="userSpaceOnUse">
      <stop stop-color="#7367FF"/>
      <stop offset="0.52" stop-color="#286EFF"/>
      <stop offset="1" stop-color="#1EE5F2"/>
    </linearGradient>
    <linearGradient id="mark-lower" x1="72" y1="49" x2="19" y2="83" gradientUnits="userSpaceOnUse">
      <stop stop-color="#315CFF"/>
      <stop offset="0.5" stop-color="#7345FF"/>
      <stop offset="1" stop-color="#D83FF0"/>
    </linearGradient>
    <linearGradient id="mark-fold" x1="46" y1="46" x2="39" y2="72" gradientUnits="userSpaceOnUse">
      <stop stop-color="#162B8F"/>
      <stop offset="1" stop-color="#7726BD"/>
    </linearGradient>
    <filter id="mark-shadow" x="-30%" y="-30%" width="160%" height="160%" color-interpolation-filters="sRGB">
      <feDropShadow dx="0" dy="1.3" stdDeviation="2.2" flood-color="#1E6BFF" flood-opacity="0.42"/>
    </filter>
  </defs>
  <rect x="16" y="16" width="992" height="992" rx="224" fill="url(#icon-bg)"/>
  <rect x="16" y="16" width="992" height="992" rx="224" fill="url(#icon-glow)"/>
  <rect x="24" y="24" width="976" height="976" rx="216" stroke="#24508A" stroke-width="8" stroke-opacity="0.7"/>
  <circle cx="512" cy="494" r="350" stroke="#1D5DAE" stroke-width="3" stroke-opacity="0.18"/>
  <circle cx="512" cy="494" r="284" stroke="#28DFF4" stroke-width="3" stroke-opacity="0.13"/>
  <g transform="translate(0 -4) scale(10.6667)" filter="url(#mark-shadow)">
    <path d="M25 12H81L69 32H39C34.4 32 31.7 33.8 31.7 36.7C31.7 39.7 35 41.1 40.2 42.1L56.7 45.2L46.2 61.5L29.8 58.2C16.8 55.6 10.8 47.9 13.6 35.9C16 25.4 21.2 17.2 25 12Z" fill="url(#mark-top)"/>
    <path d="M56.7 45.2C71.7 48 84.8 52.1 82 65.4C79.5 77.1 68.7 84 53 84H15L27.4 63.6H56C60.9 63.6 63.8 61.8 63.8 58.8C63.8 55.9 60.9 54.3 55.7 53.3L46.2 51.5L56.7 45.2Z" fill="url(#mark-lower)"/>
    <path d="M46.2 51.5L56.7 45.2L50.4 62.2L38.1 77.9L27.4 63.6L46.2 51.5Z" fill="url(#mark-fold)" opacity="0.92"/>
    <path d="M27.4 63.6H44.4L32 84H15L27.4 63.6Z" fill="#D842EC"/>
    <path d="M25 12H81L75.8 20.7H21.1C22.5 17.3 24 14.3 25 12Z" fill="#46E8F4" opacity="0.28"/>
  </g>
</svg>
